<?xml version="1.0" encoding="UTF-8" standalone="no"?>
<svg
   width="546"
   height="108"
   viewBox="0 0 546 108"
   fill="none"
   version="1.1"
   id="svg1"
   sodipodi:docname="logo_fcs_dark.svg"
   inkscape:version="1.3.2 (091e20e, 2023-11-25, custom)"
   xmlns:inkscape="http://www.inkscape.org/namespaces/inkscape"
   xmlns:sodipodi="http://sodipodi.sourceforge.net/DTD/sodipodi-0.dtd"
   xmlns="http://www.w3.org/2000/svg"
   xmlns:svg="http://www.w3.org/2000/svg">
  <defs
     id="defs1" />
  <sodipodi:namedview
     id="namedview1"
     pagecolor="#ffffff"
     bordercolor="#000000"
     borderopacity="0.25"
     inkscape:showpageshadow="2"
     inkscape:pageopacity="0.0"
     inkscape:pagecheckerboard="0"
     inkscape:deskcolor="#d1d1d1"
     inkscape:zoom="4.1410256"
     inkscape:cx="273"
     inkscape:cy="53.972137"
     inkscape:window-width="2880"
     inkscape:window-height="1708"
     inkscape:window-x="-12"
     inkscape:window-y="40"
     inkscape:window-maximized="1"
     inkscape:current-layer="svg1" />
  <path
     fill-rule="evenodd"
     clip-rule="evenodd"
     d="M 183.63016,53.863309 C 183.63016,24.399897 206.25917,0.515 234.1722,0.515 h 79.01972 c 26.96358,0 48.9959,22.286376 50.46403,50.359483 h -61.38701 v -5.130768 h -54.62875 v 17.071481 h 54.62875 v -5.112152 h 61.33614 C 361.74129,85.37425 339.8827,107.21146 313.19192,107.21146 H 234.1722 c -27.91303,0 -50.54204,-23.884693 -50.54204,-53.348151 z M 496.23127,0.51512782 403.00107,0.51503596 C 354.70698,1.8377171 354.03627,58.999148 400.47335,58.999148 h 70.82934 l 0.076,12.042471 -35.46408,-8.1e-5 v -5.970743 h -72.13546 c -0.87273,20.977818 8.61037,42.140665 42.0076,42.140665 h 100.71494 c 49.58372,0 52.71586,-62.029829 5.07646,-62.029829 H 434.2645 V 32.280798 h 36.62119 v 6.651951 h 68.27489 C 540.45968,19.032881 530.86471,0.51512782 496.23124,0.51512782 Z M 35.021871,3.0812451 c -18.856622,0 -34.14294288,15.2862799 -34.14294288,34.1429039 V 107.21745 H 81.968207 V 91.852995 H 180.97937 V 59.017719 H 77.780546 V 48.02462 H 180.97937 V 3.08136 H 81.968207 v -1.149e-4 z"
     fill="#102D69"
     id="path1"
     style="fill:#ffffff;stroke-width:0.999461" />
</svg>
