<svg width="546" height="108" viewBox="0 0 546 108" fill="none" xmlns="http://www.w3.org/2000/svg">
<path fill-rule="evenodd" clip-rule="evenodd" d="M182.927 53.8914C182.927 24.4123 205.568 0.514648 233.496 0.514648H312.558C339.536 0.514648 361.58 22.8129 363.049 50.901H301.629V45.7675H246.971V62.8481H301.629V57.7332H362.998C361.133 85.4192 339.263 107.268 312.558 107.268H233.496C205.568 107.268 182.927 83.3706 182.927 53.8914ZM495.695 0.514776L402.415 0.514684C354.095 1.83807 353.424 59.03 399.886 59.03H470.753L470.828 71.0789L435.345 71.0788V65.1049H363.171C362.298 86.0939 371.786 107.268 405.201 107.268L505.97 107.268C555.58 107.268 558.714 45.2051 511.049 45.2051H433.695V32.2974L470.336 32.2974V38.9529H538.647C539.947 19.0424 530.347 0.514776 495.695 0.514776ZM34.2393 3.08226C15.3726 3.08226 0.078125 18.3767 0.078125 37.2434V107.274H81.2108V91.9014H180.275V59.0486H77.0208V48.0496H180.275V3.08238H81.2108V3.08226H34.2393Z" fill="#102D69"/>
</svg>
