<?xml version="1.0" encoding="utf-8"?>
<!-- Generator: Adobe Illustrator 26.0.1, SVG Export Plug-In . SVG Version: 6.00 Build 0)  -->
<svg version="1.1" id="Layer_1" xmlns="http://www.w3.org/2000/svg" xmlns:xlink="http://www.w3.org/1999/xlink" x="0px" y="0px"
	 viewBox="0 0 1440.35 170.08" style="enable-background:new 0 0 1440.35 170.08;" xml:space="preserve">
<style type="text/css">
	.st0{fill:#102D69;}
	.st1{fill:#FFFFFF;}
</style>
<g>
	<path class="st0" d="M170.08,85.04c0,46.97-38.07,85.04-85.04,85.04C38.07,170.08,0,132.01,0,85.04S38.07,0,85.04,0
		C132.01,0,170.08,38.07,170.08,85.04z M260.91,26.02h-35.48v115h35.48V97.64h35.47v43.37h35.48v-115h-35.48v39.76h-35.47V26.02z
		 M349.48,124.09c13.47,14.29,27.27,19.39,42.22,19.39c31.87,0,43.7-18.24,43.7-37.29c0-44.36-47.97-36.47-47.97-48.96
		c0-5.09,2.79-6.41,7.88-6.41c8.21,0,13.47,2.96,21.68,9.86l17.91-20.54c-13.31-11.33-22.84-16.59-39.43-16.59
		c-27.43,0-41.56,16.76-41.56,34.83c0,45.01,47.81,35.81,47.81,47.81c0,5.42-4.44,8.54-10.02,8.54c-5.42,0-16.1-2.46-24.31-11.17
		L349.48,124.09z M525.77,110.13h-36V97.64h33.86V68.4h-33.86V56.9h36V26.02h-71.48v115h71.48V110.13z M661.54,27.83h-12.4v67.08
		c0,20.98-15.42,34.49-34.81,34.49c-19.39,0-34.81-13.51-34.81-34.49V27.83h-12.4v67.08c0,27.5,19.55,46.58,47.21,46.58
		c27.66,0,47.21-19.08,47.21-46.58V27.83z M700.95,27.83h-12.4v111.27h12.4V49.45l68.04,89.65h12.4V27.83h-12.4v89.81L700.95,27.83z
		 M824.87,27.83h-12.4v111.27h12.4V27.83z M843.31,27.83l46.58,111.27h3.97l46.58-111.27h-13.83l-34.81,85.04l-34.65-85.04H843.31z
		 M1012.03,127.03h-42.76V87.29h38.79V75.21h-38.79V39.92h42.76V27.83h-55.16v111.27h55.16V127.03z M1061.6,96.82
		c9.06,0,17.17,43.24,42.92,43.24c2.38,0,4.77-0.32,6.99-0.95v-12.4c-1.27,0.48-2.7,0.64-4.13,0.64
		c-15.58,0-22.73-28.61-31.95-32.27c16.21-2.54,28.45-16.06,28.45-32.59c0-19.71-16.21-34.65-35.61-34.65h-31.95v111.27h12.4V96.82
		H1061.6z M1048.73,84.74V39.92h18.44c12.88,0,24.48,9.06,24.48,22.57c0,13.51-11.6,22.25-24.48,22.25H1048.73z M1138.97,55.34
		c0-11.13,9.06-18.28,22.73-18.28c12.72,0,20.19,5.56,30.36,15.74l7.79-10.01c-11.76-11.13-21.46-17.33-37.99-17.33
		c-20.82,0-34.81,11.92-34.81,29.89c0,43.87,61.84,23.53,61.84,52.78c0,11.29-9.86,21.62-26.55,21.62c-12.4,0-21.3-5.88-31.32-15.58
		l-7.63,9.38c11.76,11.76,23.05,17.96,38.95,17.96c23.69,0,39.1-15.42,39.1-33.54C1201.44,65.03,1138.97,85.22,1138.97,55.34z
		 M1237.14,27.83h-12.4v111.27h12.4V27.83z M1304.76,139.11V39.92h37.99V27.83h-88.38v12.08h37.99v99.19H1304.76z M1390.12,101.27
		v37.83h12.4v-37.83l37.83-73.44h-13.99l-30.04,58.5l-30.04-58.5h-13.99L1390.12,101.27z"/>
	<path class="st1" d="M99.59,77.38c5.52-2.27,8.88-5.75,11.09-8.39c4.22-4.84,5.94-10.77,5.94-16.39c0-4.53-1.25-13.59-9.21-19.82
		c-5.47-4.22-10.31-6.25-21.86-6.25H79.7c-0.19-0.01-0.36-0.01-0.58-0.01H55v113.88h68.85v-21.86
		C123.84,97.62,117.1,83.56,99.59,77.38z M108.25,134.12H95.83V96.1H81.5v38.06H70.52V32.19L81.8,32.2c4.22,0,10.62,0.94,15.15,6.56
		c2.36,2.85,3.8,6.63,4.31,10.43H81.5v5.61h19.92c-0.15,3.62-0.9,7.68-4.45,11.99c-3.12,3.9-8.26,7.53-15.49,7.53
		c-0.04,0-0.08,0-0.13,0v5.69c19.36,0,26.89,12.86,26.89,36.41V134.12z"/>
	<path class="st1" d="M99.59,77.38c5.52-2.27,8.88-5.75,11.09-8.39c4.22-4.84,5.94-10.77,5.94-16.39c0-4.53-1.25-13.59-9.21-19.82
		c-5.47-4.22-10.31-6.25-21.86-6.25H79.7c-0.19-0.01-0.36-0.01-0.58-0.01H54.99v113.88h68.85v-21.86
		C123.84,97.62,117.1,83.56,99.59,77.38z M108.25,134.12H95.83V96.1H81.5v38.06H70.52V32.19L81.8,32.2c4.22,0,10.62,0.94,15.15,6.56
		c2.36,2.85,3.8,6.63,4.31,10.43H81.5v5.61h19.92c-0.15,3.62-0.9,7.68-4.45,11.99c-3.12,3.9-8.26,7.53-15.49,7.53
		c-0.04,0-0.08,0-0.13,0v5.69c19.36,0,26.89,12.86,26.89,36.41V134.12z"/>
</g>
</svg>
